<?xml version="1.0" encoding="iso-8859-1"?>
<!-- Generator: Adobe Illustrator 19.0.0, SVG Export Plug-In . SVG Version: 6.00 Build 0)  -->
<svg version="1.1" id="Layer_1" xmlns="http://www.w3.org/2000/svg" xmlns:xlink="http://www.w3.org/1999/xlink" x="0px" y="0px"
	 viewBox="0 0 512 512" style="enable-background:new 0 0 512 512;" xml:space="preserve">
<path style="fill:#ECEDEF;" d="M366.746,341.333c0-42.185-34.321-76.506-76.506-76.506h-0.535v-18.19h0.535
	c42.185,0,76.506-34.321,76.506-76.506v-0.356V67.411H145.254v102.365v0.356c0,42.185,34.321,76.506,76.506,76.506h0.535v18.19
	h-0.535c-42.185,0-76.506,34.321-76.506,76.506v102.721h221.492V341.333z"/>
<path style="fill:#D9DCDF;" d="M162.909,341.333c0-42.185,34.321-76.506,76.506-76.506h0.535v-18.19h-0.535
	c-42.185,0-76.506-34.321-76.506-76.506v-0.356V67.411h-17.655v102.365v0.356c0,42.185,34.321,76.506,76.506,76.506h0.535v18.19
	h-0.535c-42.185,0-76.506,34.321-76.506,76.506v102.721h17.655V341.333z"/>
<path style="fill:#C4DF64;" d="M366.746,161.75H145.254v8.381c0,42.253,34.253,76.506,76.506,76.506h0.535v17.655h67.411v-17.655
	h0.535c42.253,0,76.506-34.253,76.506-76.506V161.75z"/>
<path style="fill:#AFCA62;" d="M239.415,246.637c-42.253,0-76.506-34.253-76.506-76.506v-8.381h-17.655v8.381
	c0,42.253,34.253,76.506,76.506,76.506h0.535v17.655h17.655v-17.655H239.415z"/>
<path style="fill:#C4DF64;" d="M352.145,431.504c-19.711-34.389-56.552-55.752-96.145-55.752c-39.594,0-76.435,21.363-96.145,55.752
	c-0.046,0.08-0.076,0.165-0.119,0.245h192.528C352.221,431.668,352.192,431.584,352.145,431.504z"/>
<path style="fill:#AFCA62;" d="M188.582,431.504c17.302-30.187,47.805-50.331,81.781-54.805c-4.729-0.623-9.525-0.947-14.364-0.947
	c-39.594,0-76.435,21.363-96.145,55.752c-0.046,0.08-0.076,0.165-0.119,0.245h28.726
	C188.505,431.668,188.536,431.583,188.582,431.504z"/>
<g>
	<path style="fill:#FFC44F;" d="M127.599,427.469c-13.865,0-25.145,11.28-25.145,25.145v34.24c0,13.865,11.28,25.145,25.145,25.145
		H292.38l6.42-8.025v-68.481l-6.42-8.025H127.599z"/>
	<path style="fill:#FFC44F;" d="M384.401,427.469h-25.68l-8.56,8.025v68.481l8.56,8.025h25.68c13.865,0,25.145-11.28,25.145-25.145
		v-34.24C409.546,438.749,398.266,427.469,384.401,427.469z"/>
</g>
<rect x="292.38" y="427.469" style="fill:#FFD791;" width="66.341" height="84.531"/>
<path style="fill:#F7B14D;" d="M127.599,427.469c-13.865,0-25.145,11.28-25.145,25.145v34.24c0,13.865,11.28,25.145,25.145,25.145
	h26.75v-84.531H127.599z"/>
<g>
	<path style="fill:#FFC44F;" d="M127.599,0c-13.865,0-25.145,11.28-25.145,25.145v34.24c0,13.865,11.28,25.145,25.145,25.145H292.38
		l6.42-8.025V8.025L292.38,0H127.599z"/>
	<path style="fill:#FFC44F;" d="M384.401,0h-25.68l-8.56,8.025v68.481l8.56,8.025h25.68c13.865,0,25.145-11.28,25.145-25.145v-34.24
		C409.546,11.28,398.266,0,384.401,0z"/>
</g>
<rect x="292.38" style="fill:#FFD791;" width="66.341" height="84.531"/>
<path style="fill:#F7B14D;" d="M127.599,0c-13.865,0-25.145,11.28-25.145,25.145v34.24c0,13.865,11.28,25.145,25.145,25.145h26.75V0
	H127.599z"/>
<g>
	<path style="fill:#AFCA62;" d="M452.882,119.306c-5.015,0-9.095-4.08-9.095-9.095s4.08-9.095,9.095-9.095h17.12
		c4.433,0,8.025-3.593,8.025-8.025c0-4.432-3.592-8.025-8.025-8.025h-9.095v-9.095c0-4.432-3.592-8.025-8.025-8.025
		c-4.433,0-8.025,3.593-8.025,8.025v10.415c-9.94,3.358-17.12,12.765-17.12,23.825c0,13.865,11.28,25.145,25.145,25.145
		c5.015,0,9.095,4.08,9.095,9.095c0,5.015-4.08,9.095-9.095,9.095h-17.12c-4.433,0-8.025,3.593-8.025,8.025
		c0,4.432,3.592,8.025,8.025,8.025h9.095v9.095c0,4.432,3.592,8.025,8.025,8.025c4.433,0,8.025-3.593,8.025-8.025v-10.415
		c9.94-3.358,17.12-12.765,17.12-23.825C478.027,130.586,466.747,119.306,452.882,119.306z"/>
	<path style="fill:#AFCA62;" d="M452.882,357.918h17.12c4.433,0,8.025-3.593,8.025-8.025s-3.592-8.025-8.025-8.025h-9.095v-9.095
		c0-4.432-3.592-8.025-8.025-8.025c-4.433,0-8.025,3.593-8.025,8.025v10.415c-9.94,3.358-17.12,12.765-17.12,23.825
		c0,13.865,11.28,25.145,25.145,25.145c5.015,0,9.095,4.08,9.095,9.095c0,5.015-4.08,9.095-9.095,9.095h-17.12
		c-4.433,0-8.025,3.593-8.025,8.025s3.592,8.025,8.025,8.025h9.095v9.095c0,4.432,3.592,8.025,8.025,8.025
		c4.433,0,8.025-3.593,8.025-8.025v-10.415c9.94-3.358,17.12-12.765,17.12-23.825c0-13.865-11.28-25.145-25.145-25.145
		c-5.015,0-9.095-4.08-9.095-9.095C443.787,361.998,447.867,357.918,452.882,357.918z"/>
	<path style="fill:#AFCA62;" d="M59.118,229.517h17.12c4.432,0,8.025-3.593,8.025-8.025s-3.593-8.025-8.025-8.025h-9.095v-9.095
		c0-4.432-3.593-8.025-8.025-8.025s-8.025,3.593-8.025,8.025v10.415c-9.94,3.358-17.12,12.765-17.12,23.825
		c0,13.865,11.28,25.145,25.145,25.145c5.015,0,9.095,4.08,9.095,9.095s-4.08,9.095-9.095,9.095h-17.12
		c-4.432,0-8.025,3.593-8.025,8.025c0,4.432,3.593,8.025,8.025,8.025h9.095v9.095c0,4.432,3.593,8.025,8.025,8.025
		s8.025-3.593,8.025-8.025v-10.415c9.94-3.358,17.12-12.765,17.12-23.825c0-13.865-11.28-25.145-25.145-25.145
		c-5.015,0-9.095-4.08-9.095-9.095S54.103,229.517,59.118,229.517z"/>
	<path style="fill:#AFCA62;" d="M256,297.998c-4.432,0-8.025-3.593-8.025-8.025v-8.56c0-4.432,3.593-8.025,8.025-8.025
		c4.433,0,8.025,3.593,8.025,8.025v8.56C264.025,294.405,260.433,297.998,256,297.998z"/>
	<path style="fill:#AFCA62;" d="M256,332.238c-4.432,0-8.025-3.593-8.025-8.025v-8.56c0-4.432,3.593-8.025,8.025-8.025
		c4.433,0,8.025,3.593,8.025,8.025v8.56C264.025,328.645,260.433,332.238,256,332.238z"/>
	<path style="fill:#AFCA62;" d="M256,366.479c-4.432,0-8.025-3.593-8.025-8.025v-8.56c0-4.432,3.593-8.025,8.025-8.025
		c4.433,0,8.025,3.593,8.025,8.025v8.56C264.025,362.885,260.433,366.479,256,366.479z"/>
</g>
<g>
	<circle style="fill:#D8ED8C;" cx="324.481" cy="195.812" r="17.12"/>
	<circle style="fill:#D8ED8C;" cx="285.96" cy="405.534" r="12.84"/>
</g>
<g>
</g>
<g>
</g>
<g>
</g>
<g>
</g>
<g>
</g>
<g>
</g>
<g>
</g>
<g>
</g>
<g>
</g>
<g>
</g>
<g>
</g>
<g>
</g>
<g>
</g>
<g>
</g>
<g>
</g>
</svg>
