<?xml version="1.0" encoding="iso-8859-1"?>
<!-- Generator: Adobe Illustrator 19.0.0, SVG Export Plug-In . SVG Version: 6.00 Build 0)  -->
<svg version="1.1" id="Layer_1" xmlns="http://www.w3.org/2000/svg" xmlns:xlink="http://www.w3.org/1999/xlink" x="0px" y="0px"
	 viewBox="0 0 455 455" style="enable-background:new 0 0 455 455;" xml:space="preserve">
<g>
	<g>
		<path d="M227.5,0C101.761,0,0,101.75,0,227.5C0,353.239,101.75,455,227.5,455C353.24,455,455,353.25,455,227.5
			C455,101.761,353.25,0,227.5,0z M345.312,203.583l-49.319,48.075l11.643,67.882c0.851,4.958-1.188,9.968-5.257,12.924
			c-4.068,2.956-9.464,3.346-13.915,1.006L227.5,301.42l-60.963,32.05c-4.45,2.34-9.847,1.95-13.915-1.006
			c-4.069-2.957-6.107-7.967-5.257-12.924l11.643-67.882l-49.319-48.075c-3.602-3.511-4.897-8.762-3.344-13.546
			c1.555-4.784,5.689-8.27,10.667-8.993l68.157-9.904l30.481-61.762c2.227-4.51,6.819-7.366,11.85-7.366s9.623,2.855,11.85,7.366
			l30.481,61.762l68.157,9.904c4.978,0.723,9.112,4.209,10.667,8.993C350.209,194.821,348.913,200.072,345.312,203.583z"/>
	</g>
</g>
<g>
</g>
<g>
</g>
<g>
</g>
<g>
</g>
<g>
</g>
<g>
</g>
<g>
</g>
<g>
</g>
<g>
</g>
<g>
</g>
<g>
</g>
<g>
</g>
<g>
</g>
<g>
</g>
<g>
</g>
</svg>
