<svg id="Icons" height="512" viewBox="0 0 74 74" width="512" xmlns="http://www.w3.org/2000/svg"><path d="m37 72a35 35 0 1 1 35-35 35 35 0 0 1 -35 35zm0-68a33 33 0 1 0 33 33 33 33 0 0 0 -33-33z"/><path d="m50.35 59.54a2 2 0 0 1 -1.18-.39l-12.17-8.84-12.17 8.84a2 2 0 0 1 -3.08-2.23l4.65-14.31-12.17-8.84a2 2 0 0 1 1.18-3.62h15l4.69-14.31a2 2 0 0 1 3.8 0l4.65 14.31h15a2 2 0 0 1 1.18 3.62l-12.13 8.84 4.65 14.31a2 2 0 0 1 -1.9 2.62zm-13.35-11.23a2.07 2.07 0 0 1 1.18.38l12.17 8.85-4.65-14.31a2 2 0 0 1 .72-2.23l12.17-8.84h-15a2 2 0 0 1 -1.9-1.38l-4.69-14.32-4.65 14.31a2 2 0 0 1 -1.9 1.38h-15l12.13 8.85a2 2 0 0 1 .72 2.24l-4.65 14.3 12.17-8.85a2.07 2.07 0 0 1 1.18-.38z"/></svg>